<?xml version="1.0" encoding="UTF-8" standalone="no"?>
<!-- Created with Inkscape (http://www.inkscape.org/) -->

<svg
   xmlns:dc="http://purl.org/dc/elements/1.1/"
   xmlns:cc="http://creativecommons.org/ns#"
   xmlns:rdf="http://www.w3.org/1999/02/22-rdf-syntax-ns#"
   xmlns:svg="http://www.w3.org/2000/svg"
   xmlns="http://www.w3.org/2000/svg"
   version="1.1"
   width="264.146"
   height="77.054001"
   id="svg3005">
  <metadata
     id="metadata3023">
    <rdf:RDF>
      <cc:Work
         rdf:about="">
        <dc:format>image/svg+xml</dc:format>
        <dc:type
           rdf:resource="http://purl.org/dc/dcmitype/StillImage" />
        <dc:title></dc:title>
      </cc:Work>
    </rdf:RDF>
  </metadata>
  <defs
     id="defs3021" />
  <g
     transform="matrix(0.99999895,0,0,1,-505.45397,-33.267)"
     id="g3007">
    <path
       d="m 577.133,57.995 c -10.685,-2.623 -24.639,6.251 -33.553,11.198 -8.315,4.615 -16.412,10.444 -26.367,8.869 -10.512,-1.66 -11.823,-14.407 -5.627,-21 -0.468,0.49 -1.381,0.567 -1.847,1.061 -12.096,12.883 3.943,23.69 16.898,20.107 15.255,-4.225 27.102,-16.543 43.357,-19.206 4.548,-0.745 8.371,0.398 11.129,3.003 -2.371,3.174 -3.745,6.981 -1.85,10.24 1.231,2.108 3.938,0.561 5.386,-0.292 4.879,-2.889 1.969,-7.605 -1.868,-10.779 0.7,-1.25 1.485,-2.351 2.352,-3.297 -1.023,0.787 -2.025,1.755 -2.961,2.809 -1.77,-1.36 -3.665,-2.373 -5.049,-2.713 z m 7.812,10.57 c 1.352,4.637 -7.133,3.456 -3.196,-5.49 0.038,-0.084 0.088,-0.141 0.121,-0.224 1.346,1.535 2.416,3.429 3.075,5.714 z"
       id="path3009"
       style="fill:#8f1a60" />
    <path
       d="m 587.007,56.619 c 3.707,-2.172 7.498,-3.449 11.28,-4.001 -5.041,-0.069 -9.666,1.476 -13.143,5.282 0.627,-0.491 1.262,-0.928 1.863,-1.281 z"
       id="path3011"
       style="fill:#8f1a60" />
    <path
       d="m 642.146,55.544 c 0,0 -0.567,-0.863 -1.58,-1.853 1.862,-2.188 2.729,-4.835 1.746,-7.688 -0.674,-1.962 -2.424,-3.418 -4.02,-4.616 -0.491,-0.364 -1.172,-0.802 -1.724,-1.289 0.109,-0.049 0.22,-0.093 0.329,-0.148 -0.033,0.036 -0.043,0.07 -0.087,0.11 0.189,-0.11 0.382,-0.223 0.575,-0.333 0.033,-0.02 0.066,-0.03 0.105,-0.05 0.329,-0.188 0.671,-0.37 0.986,-0.582 0.047,-0.031 0.104,-0.059 0.153,-0.088 -0.04,0.02 -0.073,0.024 -0.113,0.04 0.249,-0.179 0.475,-0.369 0.624,-0.646 0.22,-0.442 0.09,-0.726 -0.189,-0.917 1.621,-1.037 3.045,-2.345 4.117,-4.217 -0.305,0.526 -1.537,0.526 -1.853,1.062 -0.7,1.242 -1.643,2.177 -2.709,2.968 -0.707,-0.189 -1.71,-0.1 -2.208,0.064 0.02,-0.025 0.033,-0.049 0.062,-0.074 -0.079,0.044 -0.155,0.089 -0.235,0.133 -0.01,0.006 -0.03,0.009 -0.04,0.016 -0.508,0.282 -1.129,0.541 -1.577,0.917 -0.411,0.349 -0.565,0.697 -0.634,1.046 -0.336,-0.091 -0.674,-0.175 -1.003,-0.304 -1.969,-0.77 -3.103,-1.719 -5.247,-0.58 -0.17,0.088 -0.318,0.192 -0.484,0.281 -0.443,0.253 -0.885,0.511 -1.328,0.766 0.022,-0.01 0.045,-0.014 0.078,-0.024 -0.71,0.472 -1.37,1 -1.909,1.693 0.399,-0.51 1.448,-0.54 1.85,-1.062 0.253,-0.393 0.664,-0.631 1.014,-0.93 2.03,-0.407 3.533,0.747 5.478,1.292 -0.335,0.161 -0.678,0.313 -1.014,0.479 0.11,-0.075 0.193,-0.173 0.319,-0.244 -0.394,0.224 -0.785,0.447 -1.177,0.665 0.107,-0.048 0.226,-0.098 0.333,-0.149 -0.37,0.195 -0.741,0.385 -1.099,0.592 -4.409,2.604 -4.658,7.895 -2.729,12.082 -0.903,0.869 -1.413,1.589 -1.413,1.589 l 1.081,6.917 c -8.047,-7.318 -18.138,-11.325 -28.338,-9.843 10.376,0.15 22.316,6.838 28.879,13.31 l 0.183,1.127 -18.488,38.206 c 0,0 6.761,5.059 24.479,5.059 17.711,0 24.475,-5.059 24.475,-5.059 L 642.577,72.023 c 8.593,7.551 19.915,12.208 30.912,9.94 -11.906,0.925 -26.138,-7.442 -33.199,-15.13 l 1.856,-11.289 z m -4.944,-16 c -0.349,0.083 -0.711,0.098 -1.057,0.114 -0.146,-0.165 -0.266,-0.338 -0.349,-0.514 0.362,-0.158 0.711,-0.337 1.073,-0.51 0.316,0.234 0.483,0.542 0.333,0.91 z m -0.558,-1.064 c -0.302,0.164 -0.604,0.332 -0.909,0.481 -0.083,-0.238 -0.08,-0.486 -0.01,-0.741 0.325,0.04 0.653,0.126 0.919,0.26 z m 2.202,29.227 H 628.81 v -1.353 c 0,0 2.876,-0.843 5.148,-0.843 2.277,0 4.888,0.843 4.888,0.843 v 1.353 z M 634.018,50.81 c -2.149,0 -3.936,0.815 -5.337,1.764 -1.724,-4.005 -1.392,-8.825 2.491,-11.461 0.419,-0.184 0.838,-0.372 1.254,-0.546 0.34,0.09 0.695,0.164 1.074,0.204 0.252,0.025 0.468,-0.064 0.703,-0.076 0.894,1.248 3.049,2.36 3.865,3.061 3.021,2.6 3.42,6.223 1.81,9.31 -1.381,-1.144 -3.354,-2.256 -5.86,-2.256 z"
       id="path3013"
       style="fill:#8f1a60" />
    <path
       d="m 673.489,81.961 c 4.639,-0.355 8.925,-2.11 12.275,-5.892 -1.226,0.983 -2.454,1.864 -3.569,2.52 -2.839,1.677 -5.763,2.767 -8.706,3.372 z"
       id="path3015"
       style="fill:#8f1a60" />
    <path
       d="m 746.892,55.097 c -16.3,4.787 -28.817,18.059 -46.481,20.215 -4.03,0.491 -7.919,-0.76 -10.671,-3.194 2.666,-3.299 4.193,-7.185 2.052,-10.864 -1.305,-2.241 -4.2,-0.57 -5.731,0.35 -5.267,3.154 -2.172,7.821 2.131,11.078 -0.053,0.079 -0.112,0.193 -0.152,0.262 -0.7,1.167 -1.458,2.205 -2.274,3.125 1.082,-0.875 2.139,-1.839 3.104,-2.903 2.507,1.765 5.282,3.033 7.025,3.247 11.23,1.387 24.866,-7.045 34.199,-12.314 8.988,-5.063 18.007,-11.47 28.708,-8.548 10.051,2.737 10.495,15.212 4.396,21.656 0.465,-0.491 1.375,-0.566 1.854,-1.063 12.967,-13.716 -4.54,-25.047 -18.16,-21.047 z m -60.998,7.983 c 0.119,-2.799 2.792,-1.586 4.047,-0.756 2.656,1.759 0.571,6.262 -0.976,9.02 -1.979,-2.118 -3.21,-4.92 -3.071,-8.264 z"
       id="path3017"
       style="fill:#8f1a60" />
  </g>
</svg>
