<?xml version="1.0" encoding="UTF-8" standalone="no"?>
<!-- Created with Inkscape (http://www.inkscape.org/) -->

<svg
   xmlns:dc="http://purl.org/dc/elements/1.1/"
   xmlns:cc="http://creativecommons.org/ns#"
   xmlns:rdf="http://www.w3.org/1999/02/22-rdf-syntax-ns#"
   xmlns:svg="http://www.w3.org/2000/svg"
   xmlns="http://www.w3.org/2000/svg"
   version="1.1"
   width="30"
   height="30"
   id="svg3016">
  <metadata
     id="metadata3026">
    <rdf:RDF>
      <cc:Work
         rdf:about="">
        <dc:format>image/svg+xml</dc:format>
        <dc:type
           rdf:resource="http://purl.org/dc/dcmitype/StillImage" />
        <dc:title></dc:title>
      </cc:Work>
    </rdf:RDF>
  </metadata>
  <defs
     id="defs3024" />
  <g
     transform="translate(-615.001,-609.655)"
     id="g3018">
    <path
       d="m 630.341,639.627 v -13.674 h -3.263 v -4.096 h 3.263 v -2.225 c 0,-3.293 1.616,-5.393 5.601,-5.393 0.865,0 1.759,0.102 2.582,0.137 v 3.642 c -0.582,-0.067 -1.17,-0.1 -1.785,-0.1 -1.306,0 -1.86,0.551 -1.86,2.03 v 1.908 h 3.371 v 4.096 h -3.371 v 12.875 c 5.887,-2.025 10.122,-7.598 10.122,-14.172 0,-8.285 -6.716,-15 -15,-15 -8.284,0 -15,6.715 -15,15 0,8.283 6.716,15 15,15"
       id="path3020"
       style="fill:#8f1a60" />
  </g>
</svg>
